<!--?xml version="1.0" encoding="utf-8"?-->
<!-- Generator: Adobe Illustrator 16.0.0, SVG Export Plug-In . SVG Version: 6.00 Build 0)  -->

<svg version="1.1" id="Calque_1" xmlns="http://www.w3.org/2000/svg" xmlns:xlink="http://www.w3.org/1999/xlink" x="0px" y="0px" width="248.094px" height="143.405px" viewBox="21.551 51.97 248.094 143.405" enable-background="new 21.551 51.97 248.094 143.405" xml:space="preserve" style="">
<g>
	<g>
		<path fill="none" stroke="#000000" stroke-width="4" stroke-linecap="round" stroke-linejoin="round" d="M141.917,114.972
			c2.211-11.936-17.681-11.936-13.703,3.094c2.652,10.167,19.008,25.639-1.768,26.08c-24.754,0.885-48.183-22.102-72.937-16.797
			c-5.746,1.326-9.725,3.536-11.051,8.841c-0.884,3.978,0,7.956,3.979,8.841" class="XFDpPCJK_0"></path>
	</g>
	<g>
		<path d="M203.695,84.028v36.758c-0.896,0.322-1.778,0.703-2.652,1.118V84.028c0-7.068-5.751-12.818-12.818-12.818h-76.701
			c-7.068,0-12.818,5.75-12.818,12.818v41.017c-0.804-0.442-1.58-0.922-2.286-1.486c-0.12-0.096-0.243-0.186-0.367-0.272V84.028
			c0-8.53,6.94-15.471,15.471-15.471h76.701C196.755,68.558,203.695,75.498,203.695,84.028z" class="XFDpPCJK_1"></path>
		<path d="M201.043,152.143v8.586c0,7.069-5.751,12.82-12.818,12.82h-76.701c-7.068,0-12.818-5.751-12.818-12.82v-10.925
			c-0.858-0.628-1.736-1.226-2.652-1.73v12.657c0,8.531,6.94,15.473,15.471,15.473h76.702c8.529,0,15.471-6.94,15.471-15.473
			v-10.144C202.825,151.112,201.939,151.635,201.043,152.143z" class="XFDpPCJK_2"></path>
	</g>
	<path fill="none" stroke="#000000" stroke-width="4" stroke-linecap="round" stroke-linejoin="round" d="M157.753,81.941
		c0,21.601-5.791,41.402-6.683,62.554c6.683-24.302,15.146-25.202,17.375-18.901c1.337,4.05-0.446,8.551,0.445,12.601
		c2.228,14.4,19.157,9.9,26.285,2.7c9.355-9.9,23.166-7.2,36.086-7.65c12.92-0.45,26.285-10.8,24.504-25.201
		c-0.445-2.7-1.781-5.4-2.674-8.101" class="XFDpPCJK_3"></path>
</g>
<style data-made-with="vivus-instant">.XFDpPCJK_0{stroke-dasharray:166 168;stroke-dashoffset:167;animation:XFDpPCJK_draw 2000ms linear 0ms forwards;}.XFDpPCJK_1{stroke-dasharray:404 406;stroke-dashoffset:405;animation:XFDpPCJK_draw 2000ms linear 333ms forwards;}.XFDpPCJK_2{stroke-dasharray:291 293;stroke-dashoffset:292;animation:XFDpPCJK_draw 2000ms linear 666ms forwards;}.XFDpPCJK_3{stroke-dasharray:228 230;stroke-dashoffset:229;animation:XFDpPCJK_draw 2000ms linear 1000ms forwards;}@keyframes XFDpPCJK_draw{100%{stroke-dashoffset:0;}}@keyframes XFDpPCJK_fade{0%{stroke-opacity:1;}94.44444444444444%{stroke-opacity:1;}100%{stroke-opacity:0;}}</style></svg>
